<svg width="29" height="37" viewBox="0 0 29 37" fill="none" xmlns="http://www.w3.org/2000/svg">
<mask id="path-1-inside-1_308_456" fill="white">
<path d="M1.32885 22.4745L0 37H28.6791V33.1545L4.96377 33.5L12.7099 28.4971C12.828 28.4209 12.9287 28.3206 13.0054 28.2028L25.193 9.48711C26.4323 7.58393 25.8403 5.03194 23.8896 3.86877L19.034 0.973338C17.1866 -0.128252 14.7988 0.428291 13.6288 2.23316L2.26915 19.7575C1.74015 20.5736 1.41745 21.506 1.32885 22.4745Z"/>
</mask>
<path d="M0 37L-3.98337 36.6356L-4.38264 41H0V37ZM1.32885 22.4745L-2.65452 22.1101L1.32885 22.4745ZM12.7099 28.4971L10.5398 25.137L10.5398 25.137L12.7099 28.4971ZM4.96377 33.5L2.79362 30.1399L-8.9161 37.7026L5.02203 37.4996L4.96377 33.5ZM2.26915 19.7575L5.62565 21.9333L5.62565 21.9333L2.26915 19.7575ZM13.6288 2.23316L10.2723 0.057398V0.0573984L13.6288 2.23316ZM19.034 0.973338L16.9853 4.40891V4.40891L19.034 0.973338ZM23.8896 3.86877L21.841 7.30434L21.841 7.30434L23.8896 3.86877ZM25.193 9.48711L28.5449 11.6699L25.193 9.48711ZM13.0054 28.2028L9.65345 26.02L9.65344 26.02L13.0054 28.2028ZM28.6791 37V41H32.6791V37H28.6791ZM28.6791 33.1545H32.6791V29.0958L28.6208 29.1549L28.6791 33.1545ZM3.98337 37.3644L5.31221 22.8389L-2.65452 22.1101L-3.98337 36.6356L3.98337 37.3644ZM10.5398 25.137L2.79362 30.1399L7.13391 36.8601L14.8801 31.8572L10.5398 25.137ZM5.62565 21.9333L16.9853 4.40891L10.2723 0.0573984L-1.08735 17.5818L5.62565 21.9333ZM16.9853 4.40891L21.841 7.30434L25.9383 0.433197L21.0826 -2.46223L16.9853 4.40891ZM21.841 7.30434L9.65345 26.02L16.3573 30.3855L28.5449 11.6699L21.841 7.30434ZM28.6791 33H0V41H28.6791V33ZM5.02203 37.4996L28.7374 37.1541L28.6208 29.1549L4.9055 29.5004L5.02203 37.4996ZM24.6791 33.1545V37H32.6791V33.1545H24.6791ZM16.9853 4.40891L16.9853 4.40891L21.0826 -2.46223C17.3878 -4.66542 12.6122 -3.55233 10.2723 0.057398L16.9853 4.40891ZM14.8801 31.8573C15.4705 31.476 15.9738 30.9745 16.3573 30.3855L9.65344 26.02C9.88355 25.6667 10.1856 25.3658 10.5398 25.137L14.8801 31.8573ZM21.841 7.30434L21.841 7.30434L28.5449 11.6699C31.0236 7.86353 29.8396 2.75954 25.9383 0.433196L21.841 7.30434ZM5.31221 22.8389C5.34175 22.5161 5.44931 22.2053 5.62565 21.9333L-1.08735 17.5818C-1.96902 18.9419 -2.50685 20.496 -2.65452 22.1101L5.31221 22.8389Z" fill="#FF9900" mask="url(#path-1-inside-1_308_456)"/>
</svg>
